<svg xmlns="http://www.w3.org/2000/svg" viewBox="0 0 802 802">
  <title>CLC-Icon-RedCircle-WhiteIcon-Solid</title>
  <g>
    <path d="M401,1C180.44,1,1,180.44,1,401S180.44,801,401,801,801,621.56,801,401,621.56,1,401,1Z" style="fill: #ef0919"/>
    <path d="M547.56,401,628,320.53c9.53-9.52,8.14-23.57-1.38-33.1s-23.58-10.91-33.1-1.4l-80.47,80.47-77.58-77.58L516,208.47c9.53-9.52,8.14-23.57-1.38-33.1S491,164.46,481.47,174L401,254.44,320.53,174c-9.52-9.53-23.57-8.14-33.1,1.38s-10.91,23.58-1.4,33.1l80.47,80.47-77.58,77.58L208.46,286c-9.52-9.53-23.57-8.14-33.1,1.38S164.46,311,174,320.53L254.44,401,174,481.47c-9.53,9.52-8.14,23.57,1.38,33.1s23.58,10.91,33.1,1.4l80.47-80.47,77.58,77.58L286,593.53c-9.53,9.52-8.14,23.57,1.38,33.1S311,637.54,320.53,628L401,547.56,481.46,628c9.52,9.53,23.57,8.14,33.1-1.38s10.91-23.58,1.4-33.11l-80.47-80.47,77.58-77.58L593.53,516c9.52,9.53,23.57,8.14,33.1-1.38S637.54,491,628,481.47ZM401,478.58,323.42,401,401,323.42,478.58,401Z" style="fill: #fff"/>
  </g>
</svg>
